<?xml version="1.0" encoding="UTF-8" standalone="no"?>
<!-- Created with Inkscape (http://www.inkscape.org/) -->

<svg
   width="285.75mm"
   height="132.29167mm"
   viewBox="0 0 285.75 132.29167"
   version="1.1"
   id="svg71424"
   xmlns:xlink="http://www.w3.org/1999/xlink"
   xmlns="http://www.w3.org/2000/svg"
   xmlns:svg="http://www.w3.org/2000/svg">
  <defs
     id="defs71421">
    <marker
       style="overflow:visible"
       id="Arrow2Mend"
       refX="0"
       refY="0"
       orient="auto">
      <path
         transform="scale(-0.6)"
         d="M 8.7185878,4.0337352 -2.2072895,0.01601326 8.7185884,-4.0017078 c -1.7454984,2.3720609 -1.7354408,5.6174519 -6e-7,8.035443 z"
         style="fill:context-stroke;fill-rule:evenodd;stroke:context-stroke;stroke-width:0.625;stroke-linejoin:round"
         id="path86819" />
    </marker>
    <marker
       style="overflow:visible"
       id="Arrow1Send"
       refX="0"
       refY="0"
       orient="auto">
      <path
         transform="matrix(-0.2,0,0,-0.2,-1.2,0)"
         style="fill:context-stroke;fill-rule:evenodd;stroke:context-stroke;stroke-width:1pt"
         d="M 0,0 5,-5 -12.5,0 5,5 Z"
         id="path86807" />
    </marker>
    <marker
       style="overflow:visible"
       id="Arrow1Mend"
       refX="0"
       refY="0"
       orient="auto">
      <path
         transform="matrix(-0.4,0,0,-0.4,-4,0)"
         style="fill:context-stroke;fill-rule:evenodd;stroke:context-stroke;stroke-width:1pt"
         d="M 0,0 5,-5 -12.5,0 5,5 Z"
         id="path86801" />
    </marker>
    <marker
       style="overflow:visible"
       id="Arrow1Lend"
       refX="0"
       refY="0"
       orient="auto">
      <path
         transform="matrix(-0.8,0,0,-0.8,-10,0)"
         style="fill:context-stroke;fill-rule:evenodd;stroke:context-stroke;stroke-width:1pt"
         d="M 0,0 5,-5 -12.5,0 5,5 Z"
         id="path86795" />
    </marker>
    <marker
       style="overflow:visible"
       id="Arrow2Lend"
       refX="0"
       refY="0"
       orient="auto">
      <path
         transform="matrix(-1.1,0,0,-1.1,-1.1,0)"
         d="M 8.7185878,4.0337352 -2.2072895,0.01601326 8.7185884,-4.0017078 c -1.7454984,2.3720609 -1.7354408,5.6174519 -6e-7,8.035443 z"
         style="fill:context-stroke;fill-rule:evenodd;stroke:context-stroke;stroke-width:0.625;stroke-linejoin:round"
         id="path86813" />
    </marker>
    <linearGradient
       xlink:href="#linearGradient70168"
       id="linearGradient70174"
       x1="121.70834"
       y1="199.76042"
       x2="160.07292"
       y2="169.33333"
       gradientUnits="userSpaceOnUse"
       gradientTransform="matrix(0.5,0,0,0.5,126.97661,-28.329105)" />
    <linearGradient
       id="linearGradient70168">
      <stop
         style="stop-color:#159319;stop-opacity:1"
         offset="0"
         id="stop70164" />
      <stop
         style="stop-color:#9aa031;stop-opacity:0.5411765"
         offset="0.45800328"
         id="stop70946" />
      <stop
         style="stop-color:#159319;stop-opacity:1"
         offset="0.63483143"
         id="stop70816" />
      <stop
         style="stop-color:#159319;stop-opacity:1"
         offset="1"
         id="stop70166" />
    </linearGradient>
  </defs>
  <g
     id="layer1"
     transform="translate(5.2916665)">
    <rect
       style="fill:#ffffff;fill-opacity:0.998325;stroke:none;stroke-width:0.264583;stroke-miterlimit:4;stroke-dasharray:none;stroke-opacity:0.998008"
       id="rect86047"
       width="285.75"
       height="132.29167"
       x="-5.2916665"
       y="0"
       ry="0" />
    <g
       id="g84517"
       transform="translate(0,-2.6458333)">
      <g
         id="g24054"
         transform="translate(-67.468747,-29.36875)">
        <rect
           style="fill:#bbbbbb;fill-opacity:1;stroke:#000000;stroke-width:0.264583;stroke-miterlimit:4;stroke-dasharray:none;stroke-opacity:1"
           id="rect862"
           width="26.458332"
           height="15.875"
           x="79.375"
           y="58.208332"
           ry="1.3229179" />
        <circle
           style="fill:#898989;fill-opacity:1;stroke:#000000;stroke-width:0.264583;stroke-miterlimit:4;stroke-dasharray:none;stroke-opacity:1"
           id="path1353"
           cx="92.604164"
           cy="66.145836"
           r="6.6145859" />
        <rect
           style="fill:#bbbbbb;fill-opacity:1;stroke:#000000;stroke-width:0.264583;stroke-miterlimit:4;stroke-dasharray:none;stroke-opacity:1"
           id="rect3028"
           width="7.9375024"
           height="4.7624998"
           x="88.635414"
           y="63.764584"
           ry="0.52916718" />
        <circle
           style="fill:#000000;fill-opacity:1;stroke:#000000;stroke-width:0.264583;stroke-miterlimit:4;stroke-dasharray:none;stroke-opacity:1"
           id="path2014"
           cx="92.604164"
           cy="66.145836"
           r="1.8520858" />
        <rect
           style="fill:#bbbbbb;fill-opacity:1;stroke:#000000;stroke-width:0.264583;stroke-miterlimit:4;stroke-dasharray:none;stroke-opacity:1"
           id="rect3814"
           width="2.6458309"
           height="1.3229192"
           x="82.020836"
           y="56.885414" />
      </g>
      <g
         id="g24098"
         transform="translate(-0.24427633,-75.597117)">
        <path
           style="fill:#bbbbbb;fill-opacity:1;stroke:#010001;stroke-width:0.264583;stroke-linecap:butt;stroke-linejoin:miter;stroke-miterlimit:4;stroke-dasharray:none;stroke-opacity:1"
           d="m 27.724872,131.16129 c -0.183068,0.0488 -0.361563,0.11751 -0.531751,0.20077 l -19.0601718,9.32456 -0.3498599,0.21545 c -0.1377756,0.0848 -0.2235976,0.23674 -0.3099683,0.37356 -0.1349497,0.21378 -0.2329193,0.45042 -0.3186036,0.68827 -0.095765,0.26583 -0.1636628,0.542 -0.2162929,0.81961 -0.043255,0.22816 -0.064242,0.46033 -0.081119,0.69194 -0.042466,0.58278 -0.092444,1.16943 -0.050439,1.75224 0.022992,0.31902 0.06475,0.64149 0.1648638,0.94526 0.1062117,0.32227 0.2708813,0.62569 0.4556141,0.91032 0.1007445,0.15522 0.2176308,0.30211 0.3522334,0.4291 0.1748836,0.16499 0.3748351,0.30446 0.5831869,0.42444 0.1507767,0.0868 0.3120154,0.15708 0.4774885,0.21085 0.2575014,0.0837 0.527092,0.12579 0.7939886,0.17134 0.3175607,0.0542 0.6388042,0.0843 0.9588522,0.12099 l 10.723593,1.23032 c 0.124179,0.0143 0.249354,0.0202 0.374334,0.022 0.29921,0.004 0.598623,-0.009 0.897327,-0.0267 0.387895,-0.0233 0.776324,-0.0502 1.161042,-0.10499 0.902982,-0.12848 1.790881,-0.34684 2.685697,-0.52344 l 19.768128,-3.9015 c 0.161577,-0.0319 0.32677,-0.0569 0.479838,-0.11769 0.08345,-0.0331 0.165979,-0.0746 0.234389,-0.13272 0.101856,-0.0866 0.187527,-0.19508 0.251237,-0.3126 0.0604,-0.11142 0.09326,-0.2371 0.118346,-0.36133 0.03195,-0.15821 0.03931,-0.32118 0.03967,-0.48259 3.65e-4,-0.16357 -0.01622,-0.32713 -0.03802,-0.48925 -0.02157,-0.1604 -0.05614,-0.31889 -0.09159,-0.4768 -0.05468,-0.24356 -0.100574,-0.49091 -0.186624,-0.72523 l -1.047167,-2.85148 c -0.08447,-0.23001 -0.210756,-0.44312 -0.335074,-0.65427 -0.228203,-0.38759 -0.468666,-0.77102 -0.751777,-1.12052 -0.173283,-0.21392 -0.363749,-0.41641 -0.575362,-0.5925 -0.171182,-0.14245 -0.360041,-0.26458 -0.55589,-0.37059 -0.368535,-0.19948 -0.759952,-0.35708 -1.155846,-0.49448 l -13.6648,-4.74253 c -0.168731,-0.0586 -0.352744,-0.0582 -0.530608,-0.0743 -0.136472,-0.0124 -0.273944,-0.0253 -0.410737,-0.0172 -0.08701,0.005 -0.173913,0.0192 -0.258128,0.0417 z"
           id="path13389" />
        <path
           style="fill:#030303;fill-opacity:1;stroke:#010001;stroke-width:0.264583;stroke-linecap:butt;stroke-linejoin:miter;stroke-miterlimit:4;stroke-dasharray:none;stroke-opacity:1"
           d="m 27.645497,131.80399 c -0.126331,0.0626 -0.216086,0.18683 -0.293172,0.30488 -0.08608,0.13182 -0.148919,0.2823 -0.180057,0.43662 -0.07746,0.38387 -0.04137,0.78459 -0.0083,1.1748 0.08653,1.02113 0.305283,2.02896 0.538737,3.0268 0.08653,0.36985 0.176399,0.74187 0.318746,1.09402 0.21595,0.53424 0.484494,1.05105 0.805584,1.52954 0.117842,0.17561 0.257783,0.3369 0.407411,0.48636 0.27293,0.27262 0.56284,0.53457 0.888005,0.74212 0.402733,0.25706 0.849264,0.44326 1.296779,0.61061 0.552776,0.20671 1.128355,0.35025 1.703655,0.48186 l 12.595765,2.88154 c 0.108486,0.0248 0.220582,0.0407 0.331811,0.037 0.185922,-0.006 0.387793,-0.006 0.549362,-0.0982 0.121708,-0.0695 0.219635,-0.18958 0.274215,-0.31864 0.0843,-0.19934 0.06883,-0.43052 0.05808,-0.64668 -0.01174,-0.23604 -0.08003,-0.46609 -0.133181,-0.69636 -0.08807,-0.38151 -0.188978,-0.76049 -0.307374,-1.13371 -0.229078,-0.72211 -0.468073,-1.44419 -0.778511,-2.13524 -0.247499,-0.55095 -0.519196,-1.09627 -0.860409,-1.59464 -0.199577,-0.2915 -0.417321,-0.57898 -0.687539,-0.80654 -0.28373,-0.23894 -0.621059,-0.41077 -0.957348,-0.56731 l -14.25691,-4.86413 c -0.135721,-0.0195 -0.271358,-0.0482 -0.408466,-0.0484 -0.300952,-4.3e-4 -0.627219,-0.0299 -0.896883,0.1037 z"
           id="path9865" />
        <path
           style="fill:#898989;fill-opacity:1;stroke:#010001;stroke-width:0.264583;stroke-linecap:butt;stroke-linejoin:miter;stroke-miterlimit:4;stroke-dasharray:none;stroke-opacity:1"
           d="m 23.911478,149.40096 -14.6667669,-1.71273 -0.080665,-0.02 -0.2348939,-0.091 -0.2529041,-0.16289 -0.2247498,-0.22492 -0.1807686,-0.278 -0.1763951,-0.39196 -0.1082466,-0.43349 -0.029828,-0.28714 0.021794,-0.23756 0.07691,-0.2235 0.1490604,-0.21602 0.1937372,-0.12414 0.2662295,-0.11136 15.9192579,-6.12729 0.212035,-0.0558 0.247903,-0.046 0.25232,-0.0142 0.266382,0.0287 0.32154,0.0965 0.276692,0.10957 0.254354,0.14134 0.232159,0.18727 0.260692,0.27715 0.241421,0.38764 0.192617,0.29748 0.16573,0.19708 0.336372,0.37841 0.280916,0.24377 0.58836,0.42666 0.382243,0.21577 0.253458,0.11265 15.661195,3.49287"
           id="path14625" />
      </g>
      <g
         id="g25457"
         transform="translate(-7.9375,-91.28125)">
        <path
           id="path20518"
           style="fill:#89898f;fill-opacity:1;stroke:#1f1f1f;stroke-width:0.999999;stroke-miterlimit:4;stroke-dasharray:none;stroke-opacity:1"
           d="m 130,760 a 35.000001,35.000001 0 0 1 5.47656,0.43164 A 35.000001,35.000001 0 0 0 130,760 Z m 0,0 a 35.000001,35.000001 0 0 0 -5.44141,0.43359 A 35.000001,35.000001 0 0 1 130,760 Z m 5.47656,0.43164 a 35.000001,35.000001 0 0 1 5.32617,1.2793 35.000001,35.000001 0 0 0 -5.32617,-1.2793 z m -11.01562,0.0195 a 35.000001,35.000001 0 0 0 -5.22852,1.26172 35.000001,35.000001 0 0 1 5.22852,-1.26172 z m 16.375,1.27149 a 35.000001,35.000001 0 0 1 5.04297,2.08984 35.000001,35.000001 0 0 0 -5.04297,-2.08984 z m -21.71289,0.0273 a 35.000001,35.000001 0 0 0 -4.94141,2.05078 35.000001,35.000001 0 0 1 4.94141,-2.05078 z m 26.78906,2.07812 a 35.000001,35.000001 0 0 1 4.65625,2.85743 35.000001,35.000001 0 0 0 -4.65625,-2.85743 z m -31.87109,0.0469 a 35.000001,35.000001 0 0 0 -4.57422,2.81055 35.000001,35.000001 0 0 1 4.57422,-2.81055 z m 36.54687,2.82422 a 35.000001,35.000001 0 0 1 4.15234,3.54883 35.000001,35.000001 0 0 0 -4.15234,-3.54883 z m -41.16992,0.0215 a 35.000001,35.000001 0 0 0 -4.14649,3.54492 35.000001,35.000001 0 0 1 4.14649,-3.54492 z m -4.14649,3.54492 A 35.000001,35.000001 0 0 0 96.642578,784.43164 59.999999,32.499999 0 0 0 130,790 a 59.999999,32.499999 0 0 0 33.38477,-5.50195 35.000001,35.000001 0 0 0 -0.0957,-0.29688 A 59.999998,24.999999 0 0 0 130,780 a 59.999998,24.999999 0 0 0 -33.255859,4.19727 35.000001,35.000001 0 0 1 8.527339,-13.93165 z m 58.01758,13.93555 a 35.000001,35.000001 0 0 0 -2.09961,-5.07617 35.000001,35.000001 0 0 1 2.09961,5.07617 z m -2.09961,-5.07617 a 35.000001,35.000001 0 0 0 -2.86914,-4.68555 35.000001,35.000001 0 0 1 2.86914,4.68555 z m -2.86914,-4.68555 a 35.000001,35.000001 0 0 0 -3.55469,-4.16601 35.000001,35.000001 0 0 1 3.55469,4.16601 z"
           transform="scale(0.26458333)" />
        <path
           id="path19572"
           style="fill:#bbbbbb;fill-opacity:1;stroke:#1f1f1f;stroke-width:0.999999;stroke-miterlimit:4;stroke-dasharray:none;stroke-opacity:1"
           d="m 120,750.00001 c 0,1 0,10 0,11 -10.31968,3.45805 -19.76448,12.43771 -23.255859,23.19726 C 106.59317,781.46206 118.16377,780.00171 130,780 c 11.8485,1.4e-4 23.43166,1.46197 33.28906,4.20117 C 159.68172,773.07988 150.79662,764.24615 140,761.00001 c 0,-2 0,-7 0,-11"
           transform="scale(0.26458333)" />
        <rect
           style="fill:#bbbbbb;fill-opacity:1;stroke:#010001;stroke-width:0.264583;stroke-miterlimit:4;stroke-dasharray:none;stroke-opacity:1"
           id="rect16260"
           width="10.583332"
           height="23.8125"
           x="29.104168"
           y="174.625" />
        <g
           id="g17676">
          <rect
             style="fill:#898989;fill-opacity:1;stroke:#1f1f1f;stroke-width:0.264583;stroke-miterlimit:4;stroke-dasharray:none;stroke-opacity:1"
             id="rect16258"
             width="15.874999"
             height="7.9375"
             x="10.583333"
             y="182.5625" />
          <path
             style="fill:none;stroke:#000000;stroke-width:0.264583;stroke-linecap:butt;stroke-linejoin:miter;stroke-miterlimit:4;stroke-dasharray:none;stroke-opacity:1"
             d="M 15.875,182.5625 V 190.5"
             id="path17121" />
          <path
             style="fill:none;stroke:#000000;stroke-width:0.264583;stroke-linecap:butt;stroke-linejoin:miter;stroke-miterlimit:4;stroke-dasharray:none;stroke-opacity:1"
             d="M 21.166666,182.5625 V 190.5"
             id="path17123" />
          <path
             style="fill:none;stroke:#000000;stroke-width:0.264583;stroke-linecap:butt;stroke-linejoin:miter;stroke-miterlimit:4;stroke-dasharray:none;stroke-opacity:1"
             d="M 10.583333,186.53125 H 29.104167"
             id="path17125" />
        </g>
        <g
           id="g18135"
           transform="translate(31.75)">
          <rect
             style="fill:#898989;fill-opacity:1;stroke:#1f1f1f;stroke-width:0.264583;stroke-miterlimit:4;stroke-dasharray:none;stroke-opacity:1"
             id="rect18127"
             width="15.874999"
             height="7.9375"
             x="10.583333"
             y="182.5625" />
          <path
             style="fill:none;stroke:#000000;stroke-width:0.264583;stroke-linecap:butt;stroke-linejoin:miter;stroke-miterlimit:4;stroke-dasharray:none;stroke-opacity:1"
             d="M 15.875,182.5625 V 190.5"
             id="path18129" />
          <path
             style="fill:none;stroke:#000000;stroke-width:0.264583;stroke-linecap:butt;stroke-linejoin:miter;stroke-miterlimit:4;stroke-dasharray:none;stroke-opacity:1"
             d="M 21.166666,182.5625 V 190.5"
             id="path18131" />
          <path
             style="fill:none;stroke:#000000;stroke-width:0.264583;stroke-linecap:butt;stroke-linejoin:miter;stroke-miterlimit:4;stroke-dasharray:none;stroke-opacity:1"
             d="M 7.9375,186.53125 H 26.458333"
             id="path18133" />
        </g>
        <circle
           style="fill:#89898f;fill-opacity:1;stroke:#1f1f1f;stroke-width:0.264583;stroke-miterlimit:4;stroke-dasharray:none;stroke-opacity:1"
           id="path18562"
           cx="34.395832"
           cy="182.5625"
           r="2.6458333" />
        <circle
           style="fill:#89898f;fill-opacity:1;stroke:#1f1f1f;stroke-width:0.264583;stroke-miterlimit:4;stroke-dasharray:none;stroke-opacity:1"
           id="circle18842"
           cx="34.395832"
           cy="182.5625"
           r="2.6458333" />
        <circle
           style="fill:#89898f;fill-opacity:1;stroke:#1f1f1f;stroke-width:0.264583;stroke-miterlimit:4;stroke-dasharray:none;stroke-opacity:1"
           id="path19273"
           cx="34.395832"
           cy="190.5"
           r="2.6458333" />
        <path
           style="fill:none;stroke:#000000;stroke-width:0.264583px;stroke-linecap:butt;stroke-linejoin:miter;stroke-opacity:1"
           d="M 34.395833,219.60416 27.78125,206.90417"
           id="path24133" />
        <path
           style="fill:none;stroke:#000000;stroke-width:0.264583px;stroke-linecap:butt;stroke-linejoin:miter;stroke-opacity:1"
           d="m 34.395833,219.60416 6.614584,-12.69999"
           id="path24424" />
        <path
           style="fill:none;stroke:#000000;stroke-width:0.264583px;stroke-linecap:butt;stroke-linejoin:miter;stroke-opacity:1"
           d="M 34.395833,219.60416 V 206.375"
           id="path24905" />
        <circle
           style="fill:#000000;fill-opacity:1;stroke:#1f1f1f;stroke-width:0.264583;stroke-miterlimit:4;stroke-dasharray:none;stroke-opacity:1"
           id="path25180"
           cx="34.395832"
           cy="219.60416"
           r="0.52916664" />
      </g>
      <text
         xml:space="preserve"
         style="font-size:8.46667px;line-height:1.25;font-family:'DejaVu Sans Mono';-inkscape-font-specification:'DejaVu Sans Mono';text-align:center;text-anchor:middle;stroke-width:0.264583"
         x="26.1068"
         y="18.443638"
         id="text75833"><tspan
           id="tspan75831"
           style="stroke-width:0.264583"
           x="26.1068"
           y="18.443638">Sensors</tspan></text>
      <rect
         style="fill:none;fill-opacity:0.656595;stroke:#000000;stroke-width:0.264583;stroke-miterlimit:4;stroke-dasharray:none;stroke-opacity:0.998008"
         id="rect81735"
         width="52.916664"
         height="124.35416"
         x="0"
         y="7.9375"
         ry="0.39687499" />
    </g>
    <g
       id="g84481"
       transform="translate(5.2916679,-7.9375)">
      <text
         xml:space="preserve"
         style="font-size:6.35px;line-height:1.25;font-family:'DejaVu Sans Mono';-inkscape-font-specification:'DejaVu Sans Mono';text-align:end;text-anchor:end;stroke-width:0.264583"
         x="107.46217"
         y="35.240501"
         id="text76876"><tspan
           id="tspan76874"
           style="font-size:6.35px;text-align:end;text-anchor:end;stroke-width:0.264583"
           x="107.46217"
           y="35.240501">Localization</tspan></text>
      <g
         id="g55604"
         transform="matrix(0.5,0,0,0.5,75.553912,-39.264735)">
        <path
           style="fill:#be2727;fill-opacity:1;stroke:#000000;stroke-width:0.264583px;stroke-linecap:butt;stroke-linejoin:miter;stroke-opacity:1"
           d="m 74.083332,148.16666 2.645834,3.96875 h 6.614583 l -1.322917,-3.96875 h -7.9375"
           id="path53552" />
        <path
           style="fill:#dc5656;fill-opacity:1;stroke:#000000;stroke-width:0.264583px;stroke-linecap:butt;stroke-linejoin:miter;stroke-opacity:1"
           d="m 74.083332,148.16666 7.9375,-7.9375 10e-7,7.93751 z"
           id="path53554" />
        <path
           style="fill:#ffffff;fill-opacity:1;stroke:#000000;stroke-width:0.264583px;stroke-linecap:butt;stroke-linejoin:miter;stroke-opacity:1"
           d="m 82.020832,140.22916 7.9375,-7.9375 7.9375,7.9375 v 7.9375 h -15.875 v -7.9375"
           id="path53726" />
        <path
           style="fill:#cccccc;fill-opacity:1;stroke:#000000;stroke-width:0.264583px;stroke-linecap:butt;stroke-linejoin:miter;stroke-opacity:1"
           d="m 82.020832,148.16666 1.322917,3.96875 h 13.229166 l 1.322917,-3.96875 h -15.875"
           id="path53728" />
        <path
           style="fill:#35a923;fill-opacity:1;stroke:#000000;stroke-width:0.264583px;stroke-linecap:butt;stroke-linejoin:miter;stroke-opacity:1"
           d="m 96.572915,152.13541 h 6.614585 l 2.64583,-3.96875 h -7.937498 l -1.322917,3.96875"
           id="path53730" />
        <path
           style="fill:#56d842;fill-opacity:1;stroke:#000000;stroke-width:0.264583px;stroke-linecap:butt;stroke-linejoin:miter;stroke-opacity:1"
           d="m 97.895832,148.16666 h 7.937498 l -7.937498,-7.9375 z"
           id="path53732" />
      </g>
      <rect
         style="fill:none;fill-opacity:0.656595;stroke:#000000;stroke-width:0.264583;stroke-miterlimit:4;stroke-dasharray:none;stroke-opacity:0.998008"
         id="rect81993"
         width="74.083336"
         height="18.520834"
         x="58.208332"
         y="23.8125"
         ry="0.39687499" />
    </g>
    <g
       id="g85143"
       transform="translate(-2.6458308,-2.6458343)">
      <g
         id="g56112"
         transform="matrix(0.5,0,0,0.5,76.934999,-40.250193)">
        <path
           id="path26740"
           style="fill:#f8f8f6;fill-opacity:1;stroke:#1f1f1f;stroke-width:0.264583"
           d="m 71.4375,177.27083 c 16.413852,-4.38668 28.93286,6.78958 42.33333,1.32292 -5.11549,16.36503 4.96995,25.37687 0,39.6875 -13.871544,-6.45384 -30.915324,5.92272 -41.010413,2.64583 6.444434,-14.96501 -6.671524,-31.9142 -1.322917,-43.65625 z" />
        <g
           id="g33227"
           style="stroke-width:1.05833;stroke-miterlimit:4;stroke-dasharray:none">
          <path
             style="fill:none;stroke:#000000;stroke-width:1.05833;stroke-linecap:butt;stroke-linejoin:miter;stroke-miterlimit:4;stroke-dasharray:none;stroke-opacity:1"
             d="m 83.27111,221.62194 c 0,0 2.061191,-11.55801 1.934218,-17.38856 -0.08638,-3.96679 -2.208437,-7.81211 -1.829702,-11.76172 0.261779,-2.72995 0.774058,-5.87809 2.786555,-7.74115 2.086966,-1.932 5.388135,-2.44465 8.226274,-2.26294 2.758695,0.17662 4.959238,2.5687 7.650215,3.20134 2.38616,0.56098 4.888,0.40046 7.33789,0.48124 1.1598,0.0382 3.48128,0.001 3.48128,0.001"
             id="path28766" />
          <path
             style="fill:none;stroke:#000000;stroke-width:1.05833;stroke-linecap:butt;stroke-linejoin:miter;stroke-miterlimit:4;stroke-dasharray:none;stroke-opacity:1"
             d="m 70.309338,191.29471 c 0,0 5.191641,1.76944 7.895028,2.09003 4.433836,0.52579 8.957307,0.22057 13.391253,-0.30429 4.111597,-0.48671 8.025635,-2.16563 12.140391,-2.62487 3.03931,-0.33921 9.17414,-0.0859 9.17414,-0.0859"
             id="path28900" />
          <path
             style="fill:none;stroke:#000000;stroke-width:1.05833;stroke-linecap:butt;stroke-linejoin:miter;stroke-miterlimit:4;stroke-dasharray:none;stroke-opacity:1"
             d="m 72.448947,202.2904 c 0,0 4.980196,-0.29739 7.455077,-0.0718 3.257076,0.29688 6.362206,1.82429 9.632508,1.86679 3.367046,0.0438 6.83234,-0.42622 9.964059,-1.66366 2.673459,-1.05637 4.550629,-3.61454 7.179429,-4.77759 2.18597,-0.96713 6.95535,-1.74574 6.95535,-1.74574"
             id="path32439" />
          <path
             style="fill:none;stroke:#000000;stroke-width:1.05833;stroke-linecap:butt;stroke-linejoin:miter;stroke-miterlimit:4;stroke-dasharray:none;stroke-opacity:1"
             d="m 103.82829,217.17628 c 0,0 0.80136,-10.29024 -0.92553,-14.98867 -1.20063,-3.2666 -4.593059,-5.30123 -6.25837,-8.3572 -1.207819,-2.21644 -2.511049,-4.57879 -2.633012,-7.10001 -0.139425,-2.8822 2.212503,-8.3692 2.212503,-8.3692"
             id="path32573" />
        </g>
        <g
           id="g34610"
           style="stroke:#bbbbbb;stroke-width:0.79375;stroke-miterlimit:4;stroke-dasharray:none;stroke-opacity:1">
          <path
             style="fill:none;stroke:#bbbbbb;stroke-width:0.79375;stroke-linecap:butt;stroke-linejoin:miter;stroke-miterlimit:4;stroke-dasharray:none;stroke-opacity:1"
             d="m 83.27111,221.62194 c 0,0 2.061191,-11.55801 1.934218,-17.38856 -0.08638,-3.96679 -2.208437,-7.81211 -1.829702,-11.76172 0.261779,-2.72995 0.774058,-5.87809 2.786555,-7.74115 2.086966,-1.932 5.388135,-2.44465 8.226274,-2.26294 2.758695,0.17662 4.959238,2.5687 7.650215,3.20134 2.38616,0.56098 4.888,0.40046 7.33789,0.48124 1.1598,0.0382 3.48128,0.001 3.48128,0.001"
             id="path34602" />
          <path
             style="fill:none;stroke:#bbbbbb;stroke-width:0.79375;stroke-linecap:butt;stroke-linejoin:miter;stroke-miterlimit:4;stroke-dasharray:none;stroke-opacity:1"
             d="m 70.309338,191.29471 c 0,0 5.191641,1.76944 7.895028,2.09003 4.433836,0.52579 8.957307,0.22057 13.391253,-0.30429 4.111597,-0.48671 8.025635,-2.16563 12.140391,-2.62487 3.03931,-0.33921 9.17414,-0.0859 9.17414,-0.0859"
             id="path34604" />
          <path
             style="fill:none;stroke:#bbbbbb;stroke-width:0.79375;stroke-linecap:butt;stroke-linejoin:miter;stroke-miterlimit:4;stroke-dasharray:none;stroke-opacity:1"
             d="m 72.448947,202.2904 c 0,0 4.980196,-0.29739 7.455077,-0.0718 3.257076,0.29688 6.362206,1.82429 9.632508,1.86679 3.367046,0.0438 6.83234,-0.42622 9.964059,-1.66366 2.673459,-1.05637 4.550629,-3.61454 7.179429,-4.77759 2.18597,-0.96713 6.95535,-1.74574 6.95535,-1.74574"
             id="path34606" />
          <path
             style="fill:none;stroke:#bbbbbb;stroke-width:0.79375;stroke-linecap:butt;stroke-linejoin:miter;stroke-miterlimit:4;stroke-dasharray:none;stroke-opacity:1"
             d="m 103.82829,217.17628 c 0,0 0.80136,-10.29024 -0.92553,-14.98867 -1.20063,-3.2666 -4.593059,-5.30123 -6.25837,-8.3572 -1.207819,-2.21644 -2.511049,-4.57879 -2.633012,-7.10001 -0.139425,-2.8822 2.212503,-8.3692 2.212503,-8.3692"
             id="path34608" />
        </g>
        <path
           id="rect25618"
           style="fill:#eeeccc;fill-opacity:1;stroke:#1f1f1f;stroke-width:0.999999"
           d="M 288.33984,656.43555 C 279.07231,656.42708 269.656,657.43409 260,660 c -20.21521,44.3794 24.35692,123.43933 0,180 38.59465,34.38108 124.47451,-31.17823 180,0 18.78406,-54.08742 -19.33414,-118.14792 0,-180 -55.89341,26.1497 -101.6155,-3.51874 -151.66016,-3.56445 z m 12.43555,9.61133 C 348.40057,666.08345 388.05758,692.11022 430,675 c -19.33414,61.85208 18.78406,95.91258 0,150 -52.42788,-24.39247 -116.84533,22.3851 -155,10 24.35692,-56.56067 -25.21521,-120.6206 -5,-165 10.66254,-2.84961 20.89092,-3.96072 30.77539,-3.95312 z"
           transform="scale(0.26458333)" />
      </g>
      <text
         xml:space="preserve"
         style="font-size:6.35px;line-height:1.25;font-family:'DejaVu Sans Mono';-inkscape-font-specification:'DejaVu Sans Mono';text-align:end;text-anchor:end;stroke-width:0.264583"
         x="107.46217"
         y="60.507679"
         id="text79904"><tspan
           id="tspan79902"
           style="font-size:6.35px;text-align:end;text-anchor:end;stroke-width:0.264583"
           x="107.46217"
           y="60.507679">Mapping</tspan></text>
      <rect
         style="fill:none;fill-opacity:0.656595;stroke:#000000;stroke-width:0.264583;stroke-miterlimit:4;stroke-dasharray:none;stroke-opacity:0.998008"
         id="rect82391"
         width="60.85416"
         height="29.10417"
         x="76.729164"
         y="44.979168"
         ry="0.39687499" />
    </g>
    <g
       id="g85125"
       transform="translate(2.6458359,5.291667)">
      <g
         id="g84763">
        <g
           id="g50957"
           transform="matrix(0.5,0,0,0.5,70.44658,-13.529991)">
          <g
             id="g37937"
             style="stroke:#063aff;stroke-width:0.529167;stroke-miterlimit:4;stroke-dasharray:none;stroke-opacity:1">
            <path
               style="fill:none;stroke:#063aff;stroke-width:0.529167;stroke-linecap:butt;stroke-linejoin:miter;stroke-miterlimit:4;stroke-dasharray:none;stroke-opacity:1"
               d="m 84.3941,214.31574 c 0.458454,-3.44331 0.870104,-7.37863 0.811228,-10.08236 -0.0063,-0.28919 -0.02341,-0.57773 -0.01445,-0.85858 1.457866,0.37653 2.885292,0.69161 4.345656,0.71059 3.367047,0.0438 6.832341,-0.42622 9.964059,-1.66366 0.986717,-0.38988 1.864967,-0.98435 2.722827,-1.6282 -1.49317,-2.50101 -4.161657,-4.36214 -5.579028,-6.96312 -0.280978,-0.51562 -0.567119,-1.03913 -0.846541,-1.57512 2.631782,-0.67415 5.241879,-1.49878 7.938159,-1.79971 1.00959,-0.11268 2.36075,-0.15998 3.71516,-0.1729"
               id="path37929" />
          </g>
          <path
             id="path43970"
             style="fill:#ff1c01;fill-opacity:1;stroke:#000001;stroke-width:0.264583;stroke-miterlimit:4;stroke-dasharray:none;stroke-opacity:1"
             d="m 107.15625,185.20833 c -0.73063,0 -1.32292,0.52917 -1.32292,1.32292 0,0.79375 1.32292,4.23333 1.32292,4.23333 0,0 1.32292,-3.43958 1.32292,-4.23333 0,-0.79375 -0.59229,-1.32292 -1.32292,-1.32292 z" />
          <circle
             style="fill:#a31100;fill-opacity:1;stroke:none;stroke-width:0.264583;stroke-miterlimit:4;stroke-dasharray:none;stroke-opacity:1"
             id="path49125"
             cx="107.15625"
             cy="186.53125"
             r="0.79374999" />
        </g>
        <text
           xml:space="preserve"
           style="font-size:6.35px;line-height:1.25;font-family:'DejaVu Sans Mono';-inkscape-font-specification:'DejaVu Sans Mono';text-align:end;text-anchor:end;stroke-width:0.264583"
           x="107.46217"
           y="87.102684"
           id="text80010"><tspan
             id="tspan80008"
             style="font-size:6.35px;text-align:end;text-anchor:end;stroke-width:0.264583"
             x="107.46217"
             y="87.102684">Routing</tspan></text>
      </g>
      <rect
         style="fill:none;fill-opacity:0.656595;stroke:#000000;stroke-width:0.264583;stroke-miterlimit:4;stroke-dasharray:none;stroke-opacity:0.998008"
         id="rect84556"
         width="50.270836"
         height="23.812498"
         x="76.729164"
         y="74.083336"
         ry="0.39687499" />
    </g>
    <g
       id="g85360"
       transform="translate(5.7302729,-8.748336)">
      <g
         id="g61837"
         transform="matrix(0.5,0,0,0.5,66.145834,77.390625)">
        <circle
           style="fill:#ffffff;fill-opacity:1;stroke:#000000;stroke-width:0.264583;stroke-miterlimit:4;stroke-dasharray:none;stroke-opacity:1"
           id="path56249"
           cx="87.3125"
           cy="95.25"
           r="2.6458333" />
        <path
           style="fill:none;stroke:#000000;stroke-width:0.264583;stroke-linecap:butt;stroke-linejoin:miter;stroke-miterlimit:4;stroke-dasharray:none;stroke-opacity:1"
           d="m 87.312499,97.895832 v 5.291668 l -2.645833,3.96875 2.645833,-3.96875 2.645833,3.96875 -2.645833,-3.96875 v -2.64583 l 2.645833,-1.322921 -2.645833,1.322921 -2.645833,-1.322921 2.645833,1.322921 z"
           id="path56518" />
      </g>
      <g
         id="g61849"
         transform="matrix(0.5,0,0,0.5,66.145834,77.390625)">
        <path
           style="fill:#d684d1;fill-opacity:1;stroke:#000000;stroke-width:0.264583;stroke-linecap:butt;stroke-linejoin:miter;stroke-miterlimit:4;stroke-dasharray:none;stroke-opacity:1"
           d="m 95.249999,105.83333 h 26.458331 c 0,0 0.33751,-1.83102 0,-2.64583 -0.4773,-1.15231 -1.39857,-2.64583 -2.64583,-2.64583 h -5.29167 c 0,0 -0.67374,-5.291671 -2.64583,-5.291671 H 97.895832 c -1.972089,0 -2.19274,3.372337 -2.645833,5.291671 -0.405258,1.7167 0,5.29166 0,5.29166 z"
           id="path56633" />
        <path
           style="fill:#bbbbbb;fill-opacity:1;stroke:#000000;stroke-width:0.264583;stroke-linecap:butt;stroke-linejoin:miter;stroke-miterlimit:4;stroke-dasharray:none;stroke-opacity:1"
           d="m 97.895832,96.572915 -1.322917,3.968755 h 6.614585 v -3.968755 z"
           id="path57033" />
        <path
           style="fill:#bbbbbb;fill-opacity:1;stroke:#000000;stroke-width:0.264583;stroke-linecap:butt;stroke-linejoin:miter;stroke-miterlimit:4;stroke-dasharray:none;stroke-opacity:1"
           d="m 104.51042,96.572915 v 3.968755 h 6.61458 l -1.32291,-3.968755 z"
           id="path57035" />
        <path
           id="path57165"
           style="fill:#efea77;fill-opacity:1;stroke:#000000;stroke-width:0.264583;stroke-miterlimit:4;stroke-dasharray:none"
           d="m 120.65,103.45208 c 0,0.87676 -0.0625,1.07549 -0.28164,1.07548 -0.21919,-10e-6 -1.1427,-0.52489 -1.1427,-1.40164 0,-0.87674 0.80827,-1.26133 1.02746,-1.26134 0.21919,-1e-5 0.39688,0.71074 0.39688,1.5875 z" />
        <circle
           style="fill:#898989;fill-opacity:1;stroke:#000000;stroke-width:0.264583;stroke-miterlimit:4;stroke-dasharray:none;stroke-opacity:1"
           id="path57440"
           cx="99.21875"
           cy="107.15625"
           r="2.6458333" />
        <circle
           style="fill:#bbbbbb;fill-opacity:1;stroke:#000000;stroke-width:0.264583;stroke-miterlimit:4;stroke-dasharray:none;stroke-opacity:1"
           id="path57442"
           cx="99.21875"
           cy="107.15625"
           r="1.3229166" />
        <circle
           style="fill:#898989;fill-opacity:1;stroke:#000000;stroke-width:0.264583;stroke-miterlimit:4;stroke-dasharray:none;stroke-opacity:1"
           id="path57546"
           cx="113.77083"
           cy="107.15625"
           r="2.6458333" />
        <circle
           style="fill:#bbbbbb;fill-opacity:1;stroke:#000000;stroke-width:0.264583;stroke-miterlimit:4;stroke-dasharray:none;stroke-opacity:1"
           id="path57589"
           cx="113.77083"
           cy="107.15625"
           r="1.3229166" />
        <rect
           style="fill:#898989;fill-opacity:1;stroke:#000000;stroke-width:0.264583;stroke-miterlimit:4;stroke-dasharray:none;stroke-opacity:1"
           id="rect58298"
           width="2.1166687"
           height="0.79374796"
           x="97.102081"
           y="101.33542"
           ry="0.39687398" />
        <rect
           style="fill:#898989;fill-opacity:1;stroke:#000000;stroke-width:0.264583;stroke-miterlimit:4;stroke-dasharray:none;stroke-opacity:1"
           id="rect58380"
           width="2.1166687"
           height="0.79374796"
           x="105.03958"
           y="101.33542"
           ry="0.39687398" />
      </g>
      <text
         xml:space="preserve"
         style="font-size:6.35px;line-height:1.25;font-family:'DejaVu Sans Mono';-inkscape-font-specification:'DejaVu Sans Mono';text-align:end;text-anchor:end;stroke-width:0.264583"
         x="104.37773"
         y="128.47801"
         id="text80116"><tspan
           id="tspan80114"
           style="font-size:6.35px;text-align:end;text-anchor:end;stroke-width:0.264583"
           x="104.37773"
           y="128.47801">Perception</tspan></text>
      <rect
         style="fill:none;fill-opacity:0.656595;stroke:#000000;stroke-width:0.264583;stroke-miterlimit:4;stroke-dasharray:none;stroke-opacity:0.998008"
         id="rect84916"
         width="66.145828"
         height="15.875"
         x="63.061394"
         y="119.87334"
         ry="0.39687499" />
    </g>
    <g
       id="g85863"
       transform="translate(-5.2916717,-15.874999)">
      <text
         xml:space="preserve"
         style="font-size:6.35px;line-height:1.25;font-family:'DejaVu Sans Mono';-inkscape-font-specification:'DejaVu Sans Mono';text-align:end;text-anchor:end;stroke-width:0.264583"
         x="189.60699"
         y="69.370834"
         id="text80439"><tspan
           id="tspan80437"
           style="font-size:6.35px;text-align:end;text-anchor:end;stroke-width:0.264583"
           x="189.60699"
           y="69.370834">Motion</tspan><tspan
           style="font-size:6.35px;text-align:end;text-anchor:end;stroke-width:0.264583"
           x="189.60699"
           y="77.308334"
           id="tspan80679">Planning</tspan></text>
      <g
         id="g80995"
         style="stroke-width:0.132292;stroke-miterlimit:4;stroke-dasharray:none">
        <path
           style="fill:url(#linearGradient70174);fill-opacity:1;stroke:#000000;stroke-width:0.132292;stroke-linecap:butt;stroke-linejoin:miter;stroke-miterlimit:4;stroke-dasharray:none;stroke-opacity:1"
           d="M 194.44536,81.472975 V 69.566725 68.24381 c 0,-0.44097 -0.0706,-0.887635 0,-1.322915 0.22337,-1.37647 0.5898,-2.782535 1.32292,-3.96875 0.32786,-0.53049 0.79242,-0.99506 1.32291,-1.32292 1.18621,-0.73312 2.59228,-1.099545 3.96875,-1.322915 1.30584,-0.21191 3.96875,0 3.96875,0 v 2.645835 c 0,0 -2.68122,-0.303945 -3.96875,0 -0.95966,0.226545 -1.94859,0.62568 -2.64583,1.322915 -0.69724,0.69724 -1.28505,1.66052 -1.32292,2.645835 -0.0166,0.4313 0.0199,0.74131 0.0176,1.31576 l -0.006,1.38233 -0.012,11.85399 z"
           id="path69406" />
        <g
           id="g80905"
           transform="matrix(0.25,0,0,0.25,173.42977,46.565905)"
           style="stroke-width:0.529167;stroke-miterlimit:4;stroke-dasharray:none">
          <path
             style="fill:#be2727;fill-opacity:1;stroke:#000000;stroke-width:0.529167;stroke-linecap:butt;stroke-linejoin:miter;stroke-miterlimit:4;stroke-dasharray:none;stroke-opacity:1"
             d="m 74.083332,148.16666 2.645834,3.96875 h 6.614583 l -1.322917,-3.96875 h -7.9375"
             id="path80893" />
          <path
             style="fill:#dc5656;fill-opacity:1;stroke:#000000;stroke-width:0.529167;stroke-linecap:butt;stroke-linejoin:miter;stroke-miterlimit:4;stroke-dasharray:none;stroke-opacity:1"
             d="m 74.083332,148.16666 7.9375,-7.9375 10e-7,7.93751 z"
             id="path80895" />
          <path
             style="fill:#ffffff;fill-opacity:1;stroke:#000000;stroke-width:0.529167;stroke-linecap:butt;stroke-linejoin:miter;stroke-miterlimit:4;stroke-dasharray:none;stroke-opacity:1"
             d="m 82.020832,140.22916 7.9375,-7.9375 7.9375,7.9375 v 7.9375 h -15.875 v -7.9375"
             id="path80897" />
          <path
             style="fill:#cccccc;fill-opacity:1;stroke:#000000;stroke-width:0.529167;stroke-linecap:butt;stroke-linejoin:miter;stroke-miterlimit:4;stroke-dasharray:none;stroke-opacity:1"
             d="m 82.020832,148.16666 1.322917,3.96875 h 13.229166 l 1.322917,-3.96875 h -15.875"
             id="path80899" />
          <path
             style="fill:#35a923;fill-opacity:1;stroke:#000000;stroke-width:0.529167;stroke-linecap:butt;stroke-linejoin:miter;stroke-miterlimit:4;stroke-dasharray:none;stroke-opacity:1"
             d="m 96.572915,152.13541 h 6.614585 l 2.64583,-3.96875 h -7.937498 l -1.322917,3.96875"
             id="path80901" />
          <path
             style="fill:#56d842;fill-opacity:1;stroke:#000000;stroke-width:0.529167;stroke-linecap:butt;stroke-linejoin:miter;stroke-miterlimit:4;stroke-dasharray:none;stroke-opacity:1"
             d="m 97.895832,148.16666 h 7.937498 l -7.937498,-7.9375 z"
             id="path80903" />
        </g>
      </g>
      <rect
         style="fill:none;fill-opacity:0.656595;stroke:#000000;stroke-width:0.264583;stroke-miterlimit:4;stroke-dasharray:none;stroke-opacity:0.998008"
         id="rect85242"
         width="52.916676"
         height="29.104166"
         x="156.10417"
         y="58.208332"
         ry="0.39687499" />
    </g>
    <g
       id="g85688"
       transform="translate(-58.208328,29.104165)">
      <text
         xml:space="preserve"
         style="font-size:6.35px;line-height:1.25;font-family:'DejaVu Sans Mono';-inkscape-font-specification:'DejaVu Sans Mono';text-align:end;text-anchor:end;stroke-width:0.264583"
         x="249.91092"
         y="69.370834"
         id="text81225"><tspan
           style="font-size:6.35px;text-align:end;text-anchor:end;stroke-width:0.264583"
           x="249.91092"
           y="69.370834"
           id="tspan81223">Controls</tspan></text>
      <rect
         style="fill:none;fill-opacity:0.656595;stroke:#000000;stroke-width:0.264583;stroke-miterlimit:4;stroke-dasharray:none;stroke-opacity:0.998008"
         id="rect85457"
         width="34.39584"
         height="13.229165"
         x="216.95833"
         y="60.854168"
         ry="0.39687499" />
    </g>
    <g
       id="g85683"
       transform="translate(-44.979167)">
      <g
         id="g24061"
         transform="translate(125.28776,-23.812499)">
        <path
           id="circle869"
           style="fill:#bbbeb9;stroke:#000000;stroke-width:0.264583"
           d="m 166.6875,47.624999 c -13.15128,0 -23.8125,10.661219 -23.8125,23.8125 0,13.151281 10.66122,23.8125 23.8125,23.8125 13.15128,0 23.8125,-10.661219 23.8125,-23.8125 0,-13.151281 -10.66122,-23.8125 -23.8125,-23.8125 z m 0,5.369698 c 8.34599,-5e-5 15.39385,5.545148 17.66869,13.151135 h -35.16685 c 2.22959,-7.605987 9.15217,-13.151185 17.49816,-13.151135 z m 18.21387,21.343916 c -1.26866,8.027561 -7.71629,14.327785 -15.8135,15.380975 1.54739,-3.471246 1.78337,-10.484202 4.21421,-12.226128 2.65675,-1.903807 8.17344,-2.778996 11.59929,-3.154847 z m -36.24274,0.02066 c 3.43689,0.386895 8.80483,1.264258 11.41428,3.134175 3.07915,2.206498 2.88294,8.865049 4.25349,12.230777 -8.08476,-1.038315 -14.41647,-7.335441 -15.66777,-15.364952 z" />
        <path
           id="path12773"
           style="fill:#bbbbbb;fill-opacity:1;stroke:#000000;stroke-width:0.265;stroke-miterlimit:4;stroke-dasharray:none"
           d="m 166.6875,47.624999 c -13.15128,0 -23.8125,10.661219 -23.8125,23.8125 0,13.151281 10.66122,23.8125 23.8125,23.8125 13.15128,0 23.8125,-10.661219 23.8125,-23.8125 0,-13.151281 -10.66122,-23.8125 -23.8125,-23.8125 z m 0,5.369698 c 8.34599,-5e-5 15.39385,5.545148 17.66869,13.151135 h -35.16685 c 2.22959,-7.605987 9.15217,-13.151185 17.49816,-13.151135 z m 18.21387,21.343916 c -1.26866,8.027561 -7.71629,14.327785 -15.8135,15.380975 1.54739,-3.471246 1.78337,-10.484202 4.21421,-12.226128 2.65675,-1.903807 8.17344,-2.778996 11.59929,-3.154847 z m -36.24274,0.02066 c 3.43689,0.386895 8.80483,1.264258 11.41428,3.134175 3.07915,2.206498 2.88294,8.865049 4.25349,12.230777 -8.08476,-1.038315 -14.41647,-7.335441 -15.66777,-15.364952 z" />
        <path
           style="fill:#898989;fill-opacity:1;stroke:#000000;stroke-width:0.264583px;stroke-linecap:butt;stroke-linejoin:miter;stroke-opacity:1"
           d="m 156.10416,68.791666 1.32292,-1.322917 h 18.52083 l 1.32292,1.322917 v 5.291666 l -5.29167,2.645834 h -10.58333 l -5.29167,-2.645834 z"
           id="path12870" />
        <circle
           style="fill:#898989;fill-opacity:1;stroke:#000000;stroke-width:0.264583;stroke-opacity:1"
           id="path13246"
           cx="152.13542"
           cy="70.114586"
           r="1.3229166" />
        <circle
           style="fill:#898989;fill-opacity:1;stroke:#000000;stroke-width:0.264583;stroke-opacity:1"
           id="circle13328"
           cx="181.30911"
           cy="70.114586"
           r="1.3229166" />
      </g>
      <g
         id="g24093"
         transform="translate(125.28776,-23.812499)">
        <g
           id="g24069">
          <g
             id="g15783"
             style="fill:#868885;fill-opacity:1">
            <path
               style="fill:#868885;fill-opacity:1;stroke:#000000;stroke-width:0.264583px;stroke-linecap:butt;stroke-linejoin:miter;stroke-opacity:1"
               d="M 169.33333,121.70833 V 127 l -2.64583,5.29167 h -15.875 L 148.16666,127 v -5.29167 h 21.16667"
               id="path15043" />
            <path
               style="fill:#868885;fill-opacity:1;stroke:#000000;stroke-width:0.264583px;stroke-linecap:butt;stroke-linejoin:miter;stroke-opacity:1"
               d="m 150.8125,124.35417 h 15.875"
               id="path15158" />
            <path
               style="fill:#868885;fill-opacity:1;stroke:#000000;stroke-width:0.264583px;stroke-linecap:butt;stroke-linejoin:miter;stroke-opacity:1"
               d="m 150.8125,127 h 15.875"
               id="path15240" />
            <path
               style="fill:#868885;fill-opacity:1;stroke:#000000;stroke-width:0.264583px;stroke-linecap:butt;stroke-linejoin:miter;stroke-opacity:1"
               d="m 152.13542,129.64583 h 13.22916"
               id="path15242" />
          </g>
          <rect
             style="fill:#868885;fill-opacity:1;stroke:#000000;stroke-width:0.264583;stroke-opacity:1"
             id="rect15984"
             width="2.6458333"
             height="18.520834"
             x="157.42708"
             y="103.1875" />
        </g>
        <g
           id="g24077">
          <g
             id="g15777"
             style="fill:#868885;fill-opacity:1">
            <path
               style="fill:#868885;fill-opacity:1;stroke:#000000;stroke-width:0.264583px;stroke-linecap:butt;stroke-linejoin:miter;stroke-opacity:1"
               d="m 174.625,116.41667 h 10.58333 v 21.16666 l -5.29167,5.29167 H 174.625 v -26.45833"
               id="path14534" />
            <path
               style="fill:#868885;fill-opacity:1;stroke:#000000;stroke-width:0.264583px;stroke-linecap:butt;stroke-linejoin:miter;stroke-opacity:1"
               d="m 179.91666,119.0625 v 19.84375"
               id="path14536" />
            <path
               style="fill:#868885;fill-opacity:1;stroke:#000000;stroke-width:0.264583px;stroke-linecap:butt;stroke-linejoin:miter;stroke-opacity:1"
               d="m 177.27083,119.0625 v 19.84375"
               id="path14618" />
            <path
               style="fill:#868885;fill-opacity:1;stroke:#000000;stroke-width:0.264583px;stroke-linecap:butt;stroke-linejoin:miter;stroke-opacity:1"
               d="m 182.5625,119.0625 v 17.19792"
               id="path14620" />
          </g>
          <rect
             style="fill:#868885;fill-opacity:1;stroke:#000000;stroke-width:0.264583;stroke-opacity:1"
             id="rect16066"
             width="2.6458282"
             height="13.229167"
             x="178.59375"
             y="103.1875" />
        </g>
      </g>
      <text
         xml:space="preserve"
         style="font-size:8.46667px;line-height:1.25;font-family:'DejaVu Sans Mono';-inkscape-font-specification:'DejaVu Sans Mono';text-align:center;text-anchor:middle;stroke-width:0.264583"
         x="291.2244"
         y="18.443638"
         id="text75936"><tspan
           id="tspan75934"
           style="stroke-width:0.264583"
           x="291.2244"
           y="18.443638">Actuators</tspan></text>
      <rect
         style="fill:none;fill-opacity:0.656595;stroke:#000000;stroke-width:0.264583;stroke-miterlimit:4;stroke-dasharray:none;stroke-opacity:0.998008"
         id="rect85459"
         width="58.208344"
         height="124.35416"
         x="261.9375"
         y="5.2916665"
         ry="0.39687499" />
    </g>
    <path
       style="fill:none;stroke:#000000;stroke-width:0.79375;stroke-linecap:butt;stroke-linejoin:miter;stroke-miterlimit:4;stroke-dasharray:none;stroke-opacity:1;marker-end:url(#Arrow1Mend)"
       d="m 52.916666,23.8125 h 9.260417"
       id="path86790" />
    <path
       style="fill:none;stroke:#000000;stroke-width:0.79375;stroke-linecap:butt;stroke-linejoin:miter;stroke-miterlimit:4;stroke-dasharray:none;stroke-opacity:1;marker-end:url(#Arrow1Mend)"
       d="M 52.916666,120.38542 H 67.46875"
       id="path87304" />
    <path
       style="fill:none;stroke:#000000;stroke-width:0.79375;stroke-linecap:butt;stroke-linejoin:miter;stroke-miterlimit:4;stroke-dasharray:none;stroke-opacity:1;marker-end:url(#Arrow1Mend)"
       d="m 100.54167,34.395833 v 6.614584"
       id="path87481" />
    <path
       style="fill:none;stroke:#000000;stroke-width:0.79375;stroke-linecap:butt;stroke-linejoin:miter;stroke-miterlimit:4;stroke-dasharray:none;stroke-opacity:1;marker-end:url(#Arrow1Mend)"
       d="m 100.54167,71.437499 v 6.614584"
       id="path87582" />
    <path
       style="fill:none;stroke:#000000;stroke-width:0.79375;stroke-linecap:butt;stroke-linejoin:miter;stroke-miterlimit:4;stroke-dasharray:none;stroke-opacity:1;marker-end:url(#Arrow1Mend)"
       d="m 67.46875,34.395833 v 50.270834 c 0,1.247258 1.398575,2.645833 2.645833,2.645833 h 7.9375"
       id="path87584" />
    <path
       style="fill:none;stroke:#000000;stroke-width:0.79375;stroke-linecap:butt;stroke-linejoin:miter;stroke-miterlimit:4;stroke-dasharray:none;stroke-opacity:1;marker-end:url(#Arrow1Mend)"
       d="m 193.14583,96.572916 h 22.48959"
       id="path88451" />
    <path
       style="fill:none;stroke:#000000;stroke-width:0.79375;stroke-linecap:butt;stroke-linejoin:miter;stroke-miterlimit:4;stroke-dasharray:none;stroke-opacity:1;marker-end:url(#Arrow1Mend)"
       d="m 134.9375,120.38542 h 3.96875 c 1.24726,0 2.64583,-1.39858 2.64583,-2.64584 l 1e-5,-52.916663 c 0,-1.247256 1.39857,-2.645834 2.64583,-2.645834 h 5.29166"
       id="path88586" />
    <path
       style="fill:none;stroke:#000000;stroke-width:0.79375;stroke-linecap:butt;stroke-linejoin:miter;stroke-miterlimit:4;stroke-dasharray:none;stroke-opacity:1;marker-end:url(#Arrow1Mend)"
       d="m 129.64583,96.572916 h 6.61459 c 1.24726,0 2.64583,-1.398578 2.64583,-2.645834 V 60.854166 c 0,-1.247255 1.39857,-2.645833 2.64583,-2.645833 h 7.9375"
       id="path90980" />
    <path
       style="fill:none;stroke:#000000;stroke-width:0.79375;stroke-linecap:butt;stroke-linejoin:miter;stroke-miterlimit:4;stroke-dasharray:none;stroke-opacity:1;marker-end:url(#Arrow1Mend)"
       d="m 134.9375,54.239583 h 14.55208"
       id="path91237" />
    <path
       style="fill:none;stroke:#000000;stroke-width:0.79375;stroke-linecap:butt;stroke-linejoin:miter;stroke-miterlimit:4;stroke-dasharray:none;stroke-opacity:1;marker-end:url(#Arrow1Mend)"
       d="m 137.58333,26.458333 h 1.32292 c 1.24726,0 2.64583,1.398578 2.64583,2.645833 V 47.625 c 0,1.247261 1.39858,2.645833 2.64584,2.645833 h 5.29166"
       id="path91371" />
    <path
       style="fill:none;stroke:#000000;stroke-width:0.79375;stroke-linecap:butt;stroke-linejoin:miter;stroke-miterlimit:4;stroke-dasharray:none;stroke-opacity:1;marker-end:url(#Arrow1Mend)"
       d="M 177.27083,71.437499 V 88.635416"
       id="path91840" />
  </g>
</svg>
