<?xml version="1.0" encoding="UTF-8" standalone="no"?>
<svg
   width="48.81361"
   height="48.000202"
   version="1.1"
   id="svg9997"
   sodipodi:docname="github-mark.svg"
   inkscape:version="1.1.2 (0a00cf5339, 2022-02-04)"
   xmlns:inkscape="http://www.inkscape.org/namespaces/inkscape"
   xmlns:sodipodi="http://sodipodi.sourceforge.net/DTD/sodipodi-0.dtd"
   xmlns="http://www.w3.org/2000/svg"
   xmlns:svg="http://www.w3.org/2000/svg">
  <defs
     id="defs10001" />
  <sodipodi:namedview
     id="namedview9999"
     pagecolor="#ffffff"
     bordercolor="#666666"
     borderopacity="1.0"
     inkscape:pageshadow="2"
     inkscape:pageopacity="0.0"
     inkscape:pagecheckerboard="0"
     showgrid="false"
     fit-margin-top="0"
     fit-margin-left="0"
     fit-margin-right="0"
     fit-margin-bottom="0"
     inkscape:zoom="1"
     inkscape:cx="-133.5"
     inkscape:cy="27.5"
     inkscape:window-width="3370"
     inkscape:window-height="1376"
     inkscape:window-x="70"
     inkscape:window-y="27"
     inkscape:window-maximized="1"
     inkscape:current-layer="svg9997" />
  <path
     fill-rule="evenodd"
     clip-rule="evenodd"
     d="M 24.427,0 C 10.9195,0 0,11 0,24.6085 c 0,10.878 6.9965,20.086 16.7025,23.345 1.2135,0.245 1.658,-0.5295 1.658,-1.181 0,-0.5705 -0.04,-2.526 -0.04,-4.5635 -6.795,1.467 -8.21,-2.9335 -8.21,-2.9335 -1.092,-2.852 -2.71,-3.585 -2.71,-3.585 -2.224,-1.5075 0.162,-1.5075 0.162,-1.5075 2.467,0.163 3.7615,2.526 3.7615,2.526 2.1835,3.748 5.702,2.689 7.1175,2.037 0.202,-1.589 0.8495,-2.689 1.537,-3.3 C 14.559,34.8755 8.857,32.757 8.857,23.3045 c 0,-2.689 0.97,-4.889 2.507,-6.6 -0.2425,-0.611 -1.092,-3.1375 0.243,-6.519 0,0 2.0625,-0.652 6.713,2.526 a 23.485,23.485 0 0 1 6.107,-0.815 c 2.0625,0 4.165,0.2855 6.1065,0.815 4.651,-3.178 6.7135,-2.526 6.7135,-2.526 1.335,3.3815 0.485,5.908 0.2425,6.519 1.5775,1.711 2.5075,3.911 2.5075,6.6 0,9.4525 -5.702,11.53 -11.162,12.1415 0.89,0.774 1.658,2.2405 1.658,4.563 0,3.3 -0.04,5.9485 -0.04,6.763 0,0.652 0.445,1.4265 1.658,1.182 C 41.817,44.694 48.8135,35.4865 48.8135,24.6085 48.8535,11 37.894,0 24.427,0 Z"
     fill="#24292f"
     id="path9995"
     style="stroke-width:0.5" />
</svg>
